<?xml version="1.0" encoding="UTF-8" standalone="no"?>
<!-- Generator: Adobe Illustrator 13.0.2, SVG Export Plug-In . SVG Version: 6.00 Build 14948)  -->

<svg
   xmlns:dc="http://purl.org/dc/elements/1.1/"
   xmlns:cc="http://creativecommons.org/ns#"
   xmlns:rdf="http://www.w3.org/1999/02/22-rdf-syntax-ns#"
   xmlns:svg="http://www.w3.org/2000/svg"
   xmlns="http://www.w3.org/2000/svg"
   xmlns:sodipodi="http://sodipodi.sourceforge.net/DTD/sodipodi-0.dtd"
   xmlns:inkscape="http://www.inkscape.org/namespaces/inkscape"
   version="1.1"
   id="Layer_1"
   x="0px"
   y="0px"
   width="64"
   height="64"
   viewBox="0 0 64 64"
   enable-background="new 0 0 384 384.017"
   xml:space="preserve"
   inkscape:version="0.48.2 r9819"
   sodipodi:docname="publicdomain.svg"><metadata
   id="metadata9"><rdf:RDF><cc:Work
       rdf:about=""><dc:format>image/svg+xml</dc:format><dc:type
         rdf:resource="http://purl.org/dc/dcmitype/StillImage" /></cc:Work></rdf:RDF></metadata><defs
   id="defs7" /><sodipodi:namedview
   pagecolor="#ffffff"
   bordercolor="#666666"
   borderopacity="1"
   objecttolerance="10"
   gridtolerance="10"
   guidetolerance="10"
   inkscape:pageopacity="0"
   inkscape:pageshadow="2"
   inkscape:window-width="1024"
   inkscape:window-height="554"
   id="namedview5"
   showgrid="false"
   inkscape:zoom="5.984375"
   inkscape:cx="29.075718"
   inkscape:cy="32"
   inkscape:window-x="-8"
   inkscape:window-y="-8"
   inkscape:window-maximized="1"
   inkscape:current-layer="Layer_1" />
<path
   sodipodi:type="arc"
   style="fill:#ffffff;fill-opacity:1;fill-rule:nonzero;stroke:none"
   id="path2982"
   sodipodi:cx="31.916449"
   sodipodi:cy="31.749348"
   sodipodi:rx="30.412533"
   sodipodi:ry="30.412533"
   d="m 62.328981,31.749348 a 30.412533,30.412533 0 1 1 -60.8250652,0 30.412533,30.412533 0 1 1 60.8250652,0 z"
   transform="translate(0.08355141,0.25065246)" /><path
   d="M 32,2.8481804e-7 C 14.327333,2.8481804e-7 0,14.32733 0,32 0,49.67067 14.327333,64 32,64 49.672667,64 64,49.67067 64,32 64,14.32717 49.672667,2.8481804e-7 32,2.8481804e-7 z M 32,57.99967 C 17.662833,57.99967 5.9993334,46.33517 5.9993334,32 5.9993334,28.99883 6.5165,26.11683 7.457,23.43433 L 17.625833,27.9625 C 17.352,29.32333 17.2035,30.74283 17.2035,32.209 c 0,12.775 9.535333,16.3745 15.534667,16.3745 3.537833,0 6.599667,-1.142 8.9965,-2.81733 0.4555,-0.3265 0.868167,-0.655 1.247333,-0.98934 l -4.665,-5.66816 c -0.136833,0.15633 -0.279666,0.305 -0.426166,0.438 -1.814501,1.7205 -3.808834,1.7205 -4.254501,1.7205 -4.881,0 -6.924166,-5.14984 -6.9515,-9.27517 L 54.711,44.46983 c 0.03317,0.006 0.0605,0.006 0.08783,0.0117 C 50.3765,52.533 41.815,57.99967 32,57.99967 z M 57.055334,38.6435 28.149333,25.7415 c 1.043,-1.88867 2.703,-3.30817 5.187,-3.30817 1.44,0 2.581834,0.477 3.481167,1.07934 0.373333,0.26983 0.698,0.5395 0.971667,0.81133 l 5.2105,-5.363 C 39.5,15.952 35.521167,15.41433 32.919,15.41433 c -6.114667,0 -10.4415,2.64334 -12.992,6.65734 L 10.260667,17.7605 C 14.913,10.68283 22.918333,5.9983303 32,5.9983303 46.337,5.9983303 58.001667,17.661 58.001667,32 c 0,2.32083 -0.310833,4.56717 -0.883833,6.71017 -0.0235,-0.0235 -0.039,-0.0432 -0.0625,-0.0667 z"
   id="path3"
   inkscape:connector-curvature="0" />
</svg>